<svg xmlns="http://www.w3.org/2000/svg" xmlns:xlink="http://www.w3.org/1999/xlink" width="100" zoomAndPan="magnify" viewBox="0 0 75 74.999997" height="100" preserveAspectRatio="xMidYMid meet" version="1.0"><rect x="-7.5" width="90" fill="#ffffff" y="-7.5" height="89.999996" fill-opacity="1"/><rect x="-7.5" width="90" fill="#ffffff" y="-7.5" height="89.999996" fill-opacity="1"/><rect x="-7.5" width="90" fill="#ffffff" y="-7.5" height="89.999996" fill-opacity="1"/><path fill="#df9e38" d="M 76.5 38.25 C 76.5 59.382812 59.382812 76.5 38.25 76.5 C 17.117188 76.5 0 59.382812 0 38.25 C 0 17.117188 17.117188 0 38.25 0 C 59.382812 0 76.5 17.117188 76.5 38.25 Z M 76.5 38.25 " fill-opacity="1" fill-rule="evenodd"/><path fill="#ffffff" d="M 38.25 41.191406 C 30.128906 41.191406 23.539062 34.601562 23.539062 26.480469 C 23.539062 18.359375 30.128906 11.769531 38.25 11.769531 C 46.371094 11.769531 52.960938 18.359375 52.960938 26.480469 C 52.960938 34.601562 46.371094 41.191406 38.25 41.191406 Z M 10.574219 55.03125 C 10.605469 54.769531 10.710938 54.523438 10.878906 54.308594 C 14.511719 49.773438 20.242188 47.078125 27.953125 47.078125 L 48.546875 47.078125 C 56.257812 47.078125 61.988281 49.773438 65.621094 54.308594 C 65.789062 54.523438 65.894531 54.769531 65.925781 55.03125 C 60.257812 64.378906 49.988281 70.617188 38.25 70.617188 C 26.511719 70.617188 16.242188 64.378906 10.574219 55.03125 Z M 10.574219 55.03125 " fill-opacity="1" fill-rule="evenodd"/></svg>